# Blender v2.76 (sub 0) OBJ File: 'humantest.blend'
# www.blender.org
mtllib humantest.mtl
o Cube_Cube.001
v 0.165337 0.293043 0.765337
v 0.274264 1.768348 0.874264
v -0.165337 0.293043 0.765337
v -0.274264 1.768348 0.874264
v 0.165337 0.293043 0.434663
v 0.274264 1.768348 0.325736
v -0.165337 0.293043 0.434663
v -0.274264 1.768348 0.325736
v 0.243000 2.693043 0.843000
v -0.243000 2.693043 0.843000
v 0.243000 2.693043 0.357000
v -0.243000 2.693043 0.357000
v 0.291600 3.293042 0.891600
v -0.291600 3.293042 0.891600
v 0.291600 3.293042 0.233583
v -0.291600 3.293042 0.233583
v 0.349920 3.993042 0.949920
v -0.349920 3.993042 0.949920
v 0.282389 5.284099 0.671931
v -0.282389 5.284099 0.671931
v 0.349920 6.326012 0.947139
v -0.349920 6.326012 0.947139
v 0.349920 6.882834 0.902878
v -0.349920 6.882834 0.902878
v 0.222616 6.372062 2.143487
v -0.222616 6.372062 2.143487
v 0.222616 6.726307 2.115329
v -0.222616 6.726307 2.115329
v 0.255597 6.353452 2.405695
v -0.255597 6.353452 2.405695
v 0.255597 6.760179 2.373365
v -0.255597 6.760179 2.373365
v 0.151977 6.355879 3.513686
v -0.151978 6.355879 3.513686
v 0.151977 6.597719 3.494463
v -0.151978 6.597719 3.494463
v 0.191396 6.438515 4.250681
v -0.191396 6.438515 4.250681
v 0.191396 6.499633 4.243354
v -0.191396 6.499633 4.243354
v 0.246052 7.005301 0.241474
v -0.246052 7.005301 0.241474
v 0.224868 7.143918 0.228245
v -0.224868 7.143917 0.228245
v 0.194400 0.005734 0.794400
v -0.194400 0.005734 0.794400
v 0.194400 0.005734 0.405600
v -0.194400 0.005734 0.405600
v 0.761857 0.093984 0.758037
v 0.761857 0.093984 0.441963
v 0.776695 0.002202 0.785817
v 0.776695 0.002202 0.414183
v 0.381432 7.303921 0.322744
v -0.304872 7.299281 0.322744
v 0.419426 7.536128 0.380521
v -0.345477 7.505968 0.380521
v 0.388815 7.954919 0.437495
v -0.388815 7.879871 0.437495
v 0.297051 8.210417 0.321397
v -0.297051 8.135369 0.321397
v 0.119855 8.289862 0.153188
v -0.119855 8.214814 0.153188
v 0.165337 0.293043 -0.765337
v 0.274264 1.768348 -0.874263
v -0.165337 0.293043 -0.765337
v -0.274264 1.768348 -0.874263
v 0.165337 0.293043 -0.434663
v 0.274264 1.768348 -0.325736
v -0.165337 0.293043 -0.434663
v -0.274264 1.768348 -0.325736
v 0.243000 2.693043 -0.843000
v -0.243000 2.693043 -0.843000
v 0.243000 2.693043 -0.357000
v -0.243000 2.693043 -0.357000
v 0.291600 3.293042 -0.891600
v -0.291600 3.293042 -0.891600
v 0.291600 3.293042 -0.233583
v -0.291600 3.293042 -0.233583
v 0.349920 3.993042 -0.949920
v -0.349920 3.993042 -0.949920
v 0.349920 4.093037 0.000000
v -0.349920 4.093037 0.000000
v 0.282389 5.284099 -0.671931
v -0.282389 5.284099 -0.671931
v 0.458578 5.292656 -0.000000
v -0.458578 5.292656 -0.000000
v 0.349920 6.326012 -0.947139
v -0.349920 6.326012 -0.947139
v 0.531645 6.292574 0.000000
v -0.531645 6.292574 -0.000000
v 0.349920 6.882834 -0.902878
v -0.349920 6.882834 -0.902878
v 0.531645 6.783754 -0.000000
v -0.531645 6.783754 -0.000000
v 0.222616 6.372062 -2.143487
v -0.222616 6.372062 -2.143487
v 0.222616 6.726307 -2.115329
v -0.222616 6.726307 -2.115329
v 0.255597 6.353453 -2.405695
v -0.255597 6.353453 -2.405695
v 0.255597 6.760180 -2.373365
v -0.255597 6.760180 -2.373365
v 0.151977 6.355880 -3.513686
v -0.151978 6.355880 -3.513686
v 0.151977 6.597719 -3.494463
v -0.151978 6.597719 -3.494463
v 0.191396 6.438515 -4.250681
v -0.191396 6.438515 -4.250681
v 0.191396 6.499633 -4.243354
v -0.191396 6.499633 -4.243354
v 0.246052 7.005302 -0.241474
v -0.246052 7.005302 -0.241474
v 0.327312 7.014291 -0.000000
v -0.327312 7.014290 -0.000000
v 0.224868 7.143918 -0.228245
v -0.224868 7.143918 -0.228245
v 0.299133 7.152133 -0.000000
v -0.299133 7.152133 0.000000
v 0.194400 0.005734 -0.794400
v -0.194400 0.005734 -0.794400
v 0.194400 0.005734 -0.405600
v -0.194400 0.005734 -0.405600
v 0.761857 0.093984 -0.758037
v 0.761857 0.093984 -0.441963
v 0.776695 0.002202 -0.785817
v 0.776695 0.002202 -0.414183
v 0.381432 7.303921 -0.322744
v -0.304872 7.299281 -0.322744
v 0.482885 7.306080 0.000000
v -0.431845 7.313040 0.000000
v 0.419426 7.536128 -0.380521
v -0.345477 7.505968 -0.380521
v 0.570934 7.538845 0.000000
v -0.459574 7.508685 0.000000
v 0.388815 7.954919 -0.437495
v -0.388815 7.879871 -0.437495
v 0.517224 7.958268 0.000000
v -0.517224 7.883220 0.000000
v 0.297051 8.210417 -0.321397
v -0.297051 8.135369 -0.321397
v 0.395154 8.212427 0.000000
v -0.395154 8.137380 0.000000
v 0.119855 8.289862 -0.153188
v -0.119855 8.214814 -0.153188
v 0.159438 8.291609 0.000000
v -0.159438 8.216561 0.000000
vt 0.886704 0.867130
vt 0.921694 0.865461
vt 0.919005 0.965100
vt 0.897911 0.966106
vt 0.326622 0.344581
vt 0.326622 0.307692
vt 0.420892 0.315073
vt 0.420892 0.337311
vt 0.123875 0.693722
vt 0.088884 0.692055
vt 0.100089 0.593023
vt 0.121183 0.594028
vt 0.533296 0.307779
vt 0.533296 0.344669
vt 0.439220 0.337343
vt 0.439220 0.315104
vt 0.099073 0.573758
vt 0.123875 0.574940
vt 0.267597 0.342502
vt 0.267597 0.309818
vt 0.917019 0.803537
vt 0.886017 0.805016
vt 0.881185 0.764766
vt 0.918387 0.762991
vt 0.592368 0.309881
vt 0.592368 0.342566
vt 0.119194 0.755561
vt 0.088192 0.754084
vt 0.875445 0.717810
vt 0.920088 0.715680
vt 0.229255 0.345746
vt 0.229255 0.301494
vt 0.120578 0.796393
vt 0.083376 0.794621
vt 0.630624 0.301581
vt 0.630624 0.345835
vt 0.875981 0.631543
vt 0.912008 0.629824
vt 0.184521 0.349638
vt 0.178137 0.285756
vt 0.122022 0.851057
vt 0.077379 0.848930
vt 0.681638 0.285872
vt 0.675254 0.349757
vt 0.868689 0.561166
vt 0.913332 0.559036
vt 0.102126 0.330989
vt 0.101470 0.285699
vt 0.758112 0.285872
vt 0.757756 0.331061
vt 0.824206 0.349570
vt 0.859757 0.346593
vt 0.849901 0.428134
vt 0.827284 0.430028
vt 0.035555 0.349464
vt 0.037577 0.285663
vt 0.821875 0.285872
vt 0.993034 0.344646
vt 0.948488 0.348404
vt 0.951720 0.303708
vt 0.983043 0.301066
vt 0.000000 0.346491
vt 0.006213 0.285665
vt 0.853235 0.285872
vt 0.176690 0.652180
vt 0.205120 0.652180
vt 0.207228 0.669815
vt 0.174585 0.669815
vt 0.991122 0.426346
vt 0.962783 0.428737
vt 0.168564 0.571722
vt 0.213252 0.571722
vt 0.032694 0.429993
vt 0.010074 0.428102
vt 0.200611 0.744331
vt 0.181201 0.744331
vt 0.994536 0.443515
vt 0.961998 0.446260
vt 0.852028 0.445488
vt 0.826060 0.447662
vt 0.033861 0.447608
vt 0.007891 0.445436
vt 0.203123 0.793896
vt 0.178679 0.793896
vt 0.993667 0.518956
vt 0.974319 0.520588
vt 0.841767 0.520885
vt 0.826327 0.522178
vt 0.033771 0.522181
vt 0.018329 0.520890
vt 0.437955 0.571722
vt 0.437955 0.597466
vt 0.434070 0.597468
vt 0.434070 0.571724
vt 1.000000 0.568784
vt 0.975635 0.570839
vt 0.835462 0.571251
vt 0.831560 0.571743
vt 0.028470 0.571722
vt 0.024567 0.571230
vt 0.366256 0.648166
vt 0.335041 0.651972
vt 0.335366 0.642583
vt 0.363894 0.639105
vt 1.000000 0.283005
vt 0.986984 0.284460
vt 0.932320 0.288715
vt 0.945316 0.287975
vt 0.241159 0.647294
vt 0.225695 0.647952
vt 0.226527 0.638644
vt 0.241142 0.638043
vt 0.433584 0.587962
vt 0.424753 0.587962
vt 0.425197 0.572612
vt 0.505082 0.597891
vt 0.505082 0.571743
vt 0.529909 0.571743
vt 0.529909 0.597891
vt 0.439220 0.313100
vt 0.439220 0.339247
vt 0.062613 0.577829
vt 0.061937 0.571722
vt 0.921694 0.984237
vt 0.896893 0.985421
vt 0.594471 0.598605
vt 0.594471 0.619862
vt 0.588595 0.621731
vt 0.588595 0.596737
vt 0.859757 0.987450
vt 0.860435 0.981304
vt 0.551019 0.611827
vt 0.529909 0.611827
vt 0.530669 0.571743
vt 0.550847 0.571743
vt 0.529361 0.637053
vt 0.505630 0.637053
vt 0.588595 0.578099
vt 0.583853 0.593449
vt 0.572129 0.593449
vt 0.578607 0.571743
vt 0.324257 0.632897
vt 0.367824 0.627898
vt 0.220536 0.628143
vt 0.241215 0.627135
vt 0.417425 0.632798
vt 0.396816 0.632768
vt 0.396816 0.617216
vt 0.421115 0.617226
vt 0.320139 0.617556
vt 0.368879 0.613653
vt 0.216868 0.614217
vt 0.241229 0.613959
vt 0.396816 0.588951
vt 0.424753 0.589031
vt 0.319002 0.589228
vt 0.368879 0.588224
vt 0.213252 0.589044
vt 0.241259 0.588734
vt 0.396816 0.571722
vt 0.417339 0.571746
vt 0.322949 0.571722
vt 0.361185 0.572138
vt 0.220614 0.571922
vt 0.241190 0.571722
vt 0.459881 0.609068
vt 0.459831 0.587610
vt 0.469600 0.590301
vt 0.469665 0.606435
vt 0.480255 0.618370
vt 0.459722 0.624907
vt 0.480255 0.578402
vt 0.459758 0.571743
vt 0.026947 0.692055
vt 0.038152 0.593023
vt 0.059245 0.594028
vt 0.061937 0.693722
vt 0.326622 0.226992
vt 0.420892 0.234372
vt 0.420892 0.256610
vt 0.326622 0.263880
vt 0.868314 0.120799
vt 0.872701 0.021227
vt 0.893808 0.020619
vt 0.903328 0.119791
vt 0.533296 0.263965
vt 0.439220 0.256639
vt 0.439220 0.234400
vt 0.533296 0.227075
vt 0.870338 0.002041
vt 0.895156 0.001327
vt 0.267597 0.261801
vt 0.267597 0.229118
vt 0.057257 0.755561
vt 0.058627 0.796134
vt 0.021425 0.794362
vt 0.026255 0.754084
vt 0.592368 0.229177
vt 0.592368 0.261862
vt 0.902957 0.181908
vt 0.871934 0.182801
vt 0.060329 0.843480
vt 0.015686 0.841353
vt 0.229255 0.270076
vt 0.229255 0.225824
vt 0.907090 0.222411
vt 0.869864 0.223483
vt 0.630624 0.225909
vt 0.630624 0.270163
vt 0.052228 0.928933
vt 0.016201 0.927216
vt 0.184521 0.221872
vt 0.912177 0.276583
vt 0.867505 0.277870
vt 0.675254 0.221987
vt 0.053566 1.000000
vt 0.008923 0.997873
vt 0.102126 0.240614
vt 0.921214 0.356986
vt 0.862670 0.358672
vt 0.757756 0.240682
vt 0.824206 0.222174
vt 0.827284 0.141715
vt 0.849901 0.143609
vt 0.859757 0.225150
vt 0.035555 0.222073
vt 0.927629 0.424036
vt 0.859757 0.425991
vt 0.983823 0.223623
vt 0.980580 0.268698
vt 0.949257 0.271341
vt 0.939277 0.227381
vt 0.000000 0.225052
vt 0.928489 0.457039
vt 0.860618 0.458993
vt 0.160437 0.652180
vt 0.162542 0.669815
vt 0.129899 0.669815
vt 0.132007 0.652180
vt 0.941202 0.145196
vt 0.969542 0.142805
vt 0.123875 0.571722
vt 0.010074 0.143587
vt 0.032694 0.141692
vt 0.155926 0.744331
vt 0.136516 0.744331
vt 0.937785 0.128132
vt 0.970324 0.125387
vt 0.826060 0.124081
vt 0.852028 0.126255
vt 0.007891 0.126215
vt 0.033861 0.124039
vt 0.158448 0.793896
vt 0.134004 0.793896
vt 0.938669 0.052187
vt 0.958017 0.050555
vt 0.826327 0.049565
vt 0.841767 0.050858
vt 0.018329 0.050880
vt 0.033771 0.049586
vt 0.437944 0.623215
vt 0.434070 0.623212
vt 0.437944 0.597472
vt 0.932345 0.002056
vt 0.956710 0.000000
vt 0.831560 0.000000
vt 0.835462 0.000493
vt 0.024567 0.000493
vt 0.028470 0.000000
vt 0.316379 0.575525
vt 0.314018 0.584563
vt 0.285490 0.581088
vt 0.285164 0.571722
vt 0.915850 0.472904
vt 0.874064 0.474107
vt 0.914293 0.482218
vt 0.926292 0.492224
vt 0.867915 0.494372
vt 0.876104 0.483317
vt 0.255676 0.638644
vt 0.256533 0.647952
vt 0.434070 0.604202
vt 0.425197 0.603312
vt 0.480255 0.597891
vt 0.480255 0.571743
vt 0.439220 0.232399
vt 0.439220 0.258546
vt 0.932320 0.000000
vt 0.931538 0.006131
vt 0.037136 0.573758
vt 0.061937 0.574940
vt 0.594471 0.594869
vt 0.588595 0.571743
vt 0.594471 0.573612
vt 0.000675 0.577829
vt 0.000000 0.571722
vt 0.551779 0.571743
vt 0.571957 0.571743
vt 0.572129 0.611827
vt 0.504534 0.637053
vt 0.480803 0.637053
vt 0.932320 0.507701
vt 0.866488 0.507569
vt 0.588595 0.608799
vt 0.578607 0.615155
vt 0.317947 0.595876
vt 0.274379 0.590882
vt 0.261753 0.628143
vt 0.929626 0.535981
vt 0.863464 0.532840
vt 0.376207 0.632798
vt 0.372518 0.617226
vt 0.319002 0.610180
vt 0.270261 0.606281
vt 0.265464 0.614217
vt 0.922279 0.553282
vt 0.871701 0.549693
vt 0.368879 0.589031
vt 0.319002 0.635659
vt 0.269124 0.634656
vt 0.269124 0.589044
vt 0.907371 0.559036
vt 0.886886 0.554580
vt 0.376293 0.571746
vt 0.311310 0.651592
vt 0.273073 0.652008
vt 0.261658 0.571922
vt 0.450107 0.606377
vt 0.450041 0.590242
vt 0.439220 0.618248
vt 0.439220 0.578279
vn 0.000000 -0.073600 0.997300
vn -0.997300 -0.073600 -0.000000
vn 0.000000 -0.073600 -0.997300
vn 0.997300 -0.073600 0.000000
vn 0.000000 0.100600 -0.994900
vn -0.999400 0.033800 0.000000
vn 0.000000 -0.080700 0.996700
vn 0.000000 0.033800 0.999400
vn 0.999400 0.033800 -0.000000
vn -0.000000 0.033800 -0.999400
vn -0.000000 -0.083000 0.996500
vn -0.996700 -0.080700 0.000000
vn 0.000000 -0.201500 -0.979500
vn 0.996700 -0.080700 -0.000000
vn 0.000000 0.210500 0.977600
vn -0.996900 -0.078100 -0.004900
vn -0.000000 -0.280300 -0.959900
vn 0.996900 -0.078100 -0.004900
vn 0.000000 -0.255400 0.966800
vn -0.994200 -0.004400 0.107700
vn 0.994200 -0.004400 0.107700
vn 0.994400 0.008400 0.105500
vn -0.971600 -0.096100 0.216300
vn 0.971600 -0.096100 0.216300
vn -0.000000 0.983300 0.182100
vn -0.981300 0.008100 0.192200
vn 0.981300 0.008100 0.192200
vn 0.000000 -0.997500 -0.070800
vn 0.000000 0.991800 0.128000
vn -0.000000 -0.999300 0.038500
vn -0.994400 0.008400 0.105500
vn 0.000000 -1.000000 0.002200
vn 0.000000 0.991500 -0.130100
vn 0.992000 -0.010000 -0.125500
vn -0.992000 -0.010000 -0.125500
vn -0.000000 -0.993800 0.111400
vn 0.000000 0.989700 0.143400
vn 0.995600 0.007400 0.093100
vn -0.995600 0.007400 0.093100
vn -0.000000 0.119000 0.992900
vn 0.000000 0.991500 0.129900
vn 0.998600 -0.004600 -0.053000
vn -0.998600 -0.004600 -0.053000
vn -0.000000 0.095000 0.995500
vn -0.657900 0.747400 0.092300
vn 0.657900 0.747400 0.092300
vn -0.931600 0.181400 0.315100
vn 0.931600 0.181400 0.315100
vn -0.000000 -1.000000 -0.000000
vn -0.994900 0.100600 0.000000
vn 0.039500 0.152600 -0.987500
vn -0.000000 0.100600 0.994900
vn 0.987200 0.159600 0.000000
vn 0.039500 0.152600 0.987500
vn 0.316500 0.948600 0.000000
vn -0.006100 -1.000000 0.000000
vn 0.637000 -0.747400 0.189100
vn 0.002100 -0.514400 0.857500
vn -0.765000 -0.591000 0.255800
vn 0.902600 -0.284800 0.322700
vn 0.006100 -0.254600 0.967000
vn -0.927800 -0.202600 0.313300
vn 0.943500 0.072900 0.323400
vn 0.009600 -0.141400 0.989900
vn -0.948300 -0.149300 0.280000
vn 0.867200 0.423500 0.261800
vn -0.045200 0.413300 0.909500
vn -0.867200 0.423500 0.261800
vn -0.259500 0.965700 0.011000
vn 0.320800 0.941800 0.100500
vn -0.160700 0.892500 0.421500
vn -0.320800 0.941800 0.100500
vn 0.000000 -0.080700 -0.996700
vn -0.000000 -0.083000 -0.996500
vn 0.000000 -0.201500 0.979500
vn -0.000000 0.210500 -0.977600
vn -0.996900 -0.078100 0.004900
vn 0.000000 -0.280300 0.959900
vn 0.996900 -0.078100 0.004900
vn 0.000000 -0.255400 -0.966800
vn -0.994200 -0.004400 -0.107700
vn 0.000000 0.000000 1.000000
vn 0.994200 -0.004400 -0.107700
vn 0.994400 0.008400 -0.105500
vn -0.971600 -0.096100 -0.216300
vn 0.971600 -0.096100 -0.216300
vn 0.000000 0.983300 -0.182100
vn -0.981300 0.008100 -0.192200
vn 0.981300 0.008100 -0.192200
vn -0.000000 -0.997500 0.070800
vn -0.000000 0.991800 -0.128000
vn 0.000000 -0.999300 -0.038500
vn -0.994400 0.008400 -0.105500
vn -0.000000 -1.000000 -0.002200
vn 0.000000 0.991500 0.130200
vn 0.992000 -0.010000 0.125500
vn -0.992000 -0.010000 0.125500
vn 0.000000 -0.993800 -0.111400
vn -0.000000 0.989700 -0.143400
vn 0.995600 0.007400 -0.093100
vn -0.995600 0.007400 -0.093100
vn -0.000000 0.119000 -0.992900
vn -0.000000 0.991500 -0.129900
vn 0.998600 -0.004600 0.053000
vn -0.998600 -0.004600 0.053000
vn 0.000000 0.095000 -0.995500
vn -0.657900 0.747400 -0.092300
vn 0.657900 0.747400 -0.092300
vn -0.931600 0.181400 -0.315100
vn 0.931600 0.181400 -0.315100
vn 0.637000 -0.747400 -0.189100
vn 0.002100 -0.514400 -0.857500
vn -0.765000 -0.591000 -0.255800
vn 0.902600 -0.284800 -0.322700
vn 0.006100 -0.254600 -0.967000
vn -0.927800 -0.202600 -0.313300
vn 0.943500 0.072900 -0.323400
vn 0.009600 -0.141400 -0.989900
vn -0.948300 -0.149300 -0.280000
vn 0.867200 0.423500 -0.261800
vn -0.045200 0.413300 -0.909500
vn -0.867200 0.423500 -0.261800
vn -0.259500 0.965700 -0.011000
vn 0.320800 0.941800 -0.100500
vn -0.160700 0.892500 -0.421500
vn -0.320800 0.941800 -0.100500
usemtl Main
s off
f 2/1/1 4/2/1 3/3/1 1/4/1
f 4/5/2 8/6/2 7/7/2 3/8/2
f 8/9/3 6/10/3 5/11/3 7/12/3
f 6/13/4 2/14/4 1/15/4 5/16/4
f 7/12/5 5/11/5 47/17/5 48/18/5
f 8/6/6 4/5/6 10/19/6 12/20/6
f 10/21/7 9/22/7 13/23/7 14/24/7
f 4/2/8 2/1/8 9/22/8 10/21/8
f 2/14/9 6/13/9 11/25/9 9/26/9
f 6/10/10 8/9/10 12/27/10 11/28/10
f 14/24/11 13/23/11 17/29/11 18/30/11
f 12/20/12 10/19/12 14/31/12 16/32/12
f 11/28/13 12/27/13 16/33/13 15/34/13
f 9/26/14 11/25/14 15/35/14 13/36/14
f 18/30/15 17/29/15 19/37/15 20/38/15
f 16/32/16 14/31/16 18/39/16 82/40/16
f 15/34/17 16/33/17 82/41/17 81/42/17
f 13/36/18 15/35/18 81/43/18 17/44/18
f 20/38/19 19/37/19 21/45/19 22/46/19
f 82/40/20 18/39/20 20/47/20 86/48/20
f 17/44/21 81/43/21 85/49/21 19/50/21
f 21/51/22 23/52/22 27/53/22 25/54/22
f 86/48/23 20/47/23 22/55/23 90/56/23
f 19/50/24 85/49/24 89/57/24 21/51/24
f 24/58/25 23/59/25 41/60/25 42/61/25
f 90/56/26 22/55/26 24/62/26 94/63/26
f 21/51/27 89/57/27 93/64/27 23/52/27
f 26/65/28 25/66/28 29/67/28 30/68/28
f 23/59/29 24/58/29 28/69/29 27/70/29
f 22/71/30 21/72/30 25/66/30 26/65/30
f 24/62/31 22/55/31 26/73/31 28/74/31
f 30/68/32 29/67/32 33/75/32 34/76/32
f 27/70/33 28/69/33 32/77/33 31/78/33
f 25/54/34 27/53/34 31/79/34 29/80/34
f 28/74/35 26/73/35 30/81/35 32/82/35
f 34/76/36 33/75/36 37/83/36 38/84/36
f 31/78/37 32/77/37 36/85/37 35/86/37
f 29/80/38 31/79/38 35/87/38 33/88/38
f 32/82/39 30/81/39 34/89/39 36/90/39
f 38/91/40 37/92/40 39/93/40 40/94/40
f 35/86/41 36/85/41 40/95/41 39/96/41
f 33/88/42 35/87/42 39/97/42 37/98/42
f 36/90/43 34/89/43 38/99/43 40/100/43
f 42/101/44 41/102/44 43/103/44 44/104/44
f 94/105/45 24/58/45 42/61/45 114/106/45
f 23/59/46 93/107/46 113/108/46 41/60/46
f 114/109/47 42/110/47 44/111/47 118/112/47
f 41/94/48 113/113/48 117/114/48 43/115/48
f 45/116/49 46/117/49 48/118/49 47/119/49
f 3/8/50 7/7/50 48/120/50 46/121/50
f 47/17/51 5/11/51 50/122/51 52/123/51
f 1/4/52 3/3/52 46/124/52 45/125/52
f 50/126/53 49/127/53 51/128/53 52/129/53
f 1/4/54 45/125/54 51/130/54 49/131/54
f 5/132/55 1/133/55 49/134/55 50/135/55
f 45/116/56 47/119/56 52/136/56 51/137/56
f 43/138/57 117/139/57 129/140/57 53/141/57
f 44/104/58 43/103/58 53/142/58 54/143/58
f 118/112/59 44/111/59 54/144/59 130/145/59
f 53/146/60 129/147/60 133/148/60 55/149/60
f 54/143/61 53/142/61 55/150/61 56/151/61
f 130/145/62 54/144/62 56/152/62 134/153/62
f 55/149/63 133/148/63 137/154/63 57/155/63
f 56/151/64 55/150/64 57/156/64 58/157/64
f 134/153/65 56/152/65 58/158/65 138/159/65
f 57/155/66 137/154/66 141/160/66 59/161/66
f 58/157/67 57/156/67 59/162/67 60/163/67
f 138/159/68 58/158/68 60/164/68 142/165/68
f 145/166/69 146/167/69 62/168/69 61/169/69
f 59/170/70 141/171/70 145/166/70 61/169/70
f 60/172/71 59/170/71 61/169/71 62/168/71
f 142/173/72 60/172/72 62/168/72 146/167/72
f 64/174/3 63/175/3 65/176/3 66/177/3
f 66/178/2 65/179/2 69/180/2 70/181/2
f 70/182/1 69/183/1 67/184/1 68/185/1
f 68/186/4 67/187/4 63/188/4 64/189/4
f 69/183/52 122/190/52 121/191/52 67/184/52
f 70/181/6 74/192/6 72/193/6 66/178/6
f 72/194/73 76/195/73 75/196/73 71/197/73
f 66/177/10 72/194/10 71/197/10 64/174/10
f 64/189/9 71/198/9 73/199/9 68/186/9
f 68/185/8 73/200/8 74/201/8 70/182/8
f 76/195/74 80/202/74 79/203/74 75/196/74
f 74/192/12 78/204/12 76/205/12 72/193/12
f 73/200/75 77/206/75 78/207/75 74/201/75
f 71/198/14 75/208/14 77/209/14 73/199/14
f 80/202/76 84/210/76 83/211/76 79/203/76
f 78/204/77 82/40/77 80/212/77 76/205/77
f 77/206/78 81/213/78 82/214/78 78/207/78
f 75/208/79 79/215/79 81/43/79 77/209/79
f 84/210/80 88/216/80 87/217/80 83/211/80
f 82/40/81 86/48/81 84/218/81 80/212/81
f 81/213/82 85/219/82 86/220/82 82/214/82
f 79/215/83 83/221/83 85/49/83 81/43/83
f 87/222/84 95/223/84 97/224/84 91/225/84
f 86/48/85 90/56/85 88/226/85 84/218/85
f 85/219/82 89/227/82 90/228/82 86/220/82
f 83/221/86 87/222/86 89/57/86 85/49/86
f 92/229/87 112/230/87 111/231/87 91/232/87
f 90/56/88 94/63/88 92/233/88 88/226/88
f 89/227/82 93/234/82 94/235/82 90/228/82
f 87/222/89 91/225/89 93/64/89 89/57/89
f 96/236/90 100/237/90 99/238/90 95/239/90
f 91/232/91 97/240/91 98/241/91 92/229/91
f 88/71/92 96/236/92 95/239/92 87/242/92
f 92/233/93 98/243/93 96/244/93 88/226/93
f 100/237/94 104/245/94 103/246/94 99/238/94
f 97/240/95 101/247/95 102/248/95 98/241/95
f 95/223/96 99/249/96 101/250/96 97/224/96
f 98/243/97 102/251/97 100/252/97 96/244/97
f 104/245/98 108/253/98 107/254/98 103/246/98
f 101/247/99 105/255/99 106/256/99 102/248/99
f 99/249/100 103/257/100 105/258/100 101/250/100
f 102/251/101 106/259/101 104/260/101 100/252/101
f 108/261/102 110/262/102 109/93/102 107/263/102
f 105/255/103 109/264/103 110/265/103 106/256/103
f 103/257/104 107/266/104 109/267/104 105/258/104
f 106/259/105 110/268/105 108/269/105 104/260/105
f 112/270/106 116/271/106 115/272/106 111/273/106
f 94/105/107 114/106/107 112/230/107 92/229/107
f 93/234/82 113/274/82 114/275/82 94/235/82
f 91/232/108 111/231/108 113/108/108 93/107/108
f 117/276/82 129/277/82 130/278/82 118/279/82
f 114/109/109 118/112/109 116/280/109 112/281/109
f 113/274/82 117/276/82 118/279/82 114/275/82
f 111/282/110 115/283/110 117/114/110 113/113/110
f 119/116/49 121/284/49 122/285/49 120/117/49
f 65/179/50 120/286/50 122/287/50 69/180/50
f 121/191/54 126/288/54 124/289/54 67/184/54
f 63/175/5 119/290/5 120/291/5 65/176/5
f 124/292/53 126/129/53 125/293/53 123/294/53
f 63/175/51 123/295/51 125/296/51 119/290/51
f 67/132/55 124/297/55 123/298/55 63/299/55
f 119/116/56 125/300/56 126/301/56 121/284/56
f 129/277/82 133/302/82 134/303/82 130/278/82
f 115/304/111 127/305/111 129/140/111 117/139/111
f 116/271/112 128/306/112 127/307/112 115/272/112
f 118/112/113 130/145/113 128/308/113 116/280/113
f 133/302/82 137/309/82 138/310/82 134/303/82
f 127/311/114 131/312/114 133/148/114 129/147/114
f 128/306/115 132/313/115 131/314/115 127/307/115
f 130/145/116 134/153/116 132/315/116 128/308/116
f 137/309/82 141/316/82 142/317/82 138/310/82
f 131/312/117 135/318/117 137/154/117 133/148/117
f 132/313/118 136/319/118 135/320/118 131/314/118
f 134/153/119 138/159/119 136/321/119 132/315/119
f 141/316/82 145/322/82 146/323/82 142/317/82
f 135/318/120 139/324/120 141/160/120 137/154/120
f 136/319/121 140/325/121 139/326/121 135/320/121
f 138/159/122 142/165/122 140/327/122 136/321/122
f 145/166/123 143/328/123 144/329/123 146/167/123
f 139/330/124 143/328/124 145/166/124 141/171/124
f 140/331/125 144/329/125 143/328/125 139/330/125
f 142/173/126 146/167/126 144/329/126 140/331/126
